<svg width="25" height="24" viewBox="0 0 25 24" fill="none" xmlns="http://www.w3.org/2000/svg">
<path d="M20.5 22V7C20.5 6.45 20.3042 5.97917 19.9125 5.5875C19.5208 5.19583 19.05 5 18.5 5H17.5V6.3C17.5 6.5 17.4333 6.66667 17.3 6.8C17.1667 6.93333 17 7 16.8 7H11.2C10.9667 7 10.7792 6.875 10.6375 6.625C10.4958 6.375 10.4833 6.13333 10.6 5.9L12.5 1.8C12.6167 1.55 12.7875 1.35417 13.0125 1.2125C13.2375 1.07083 13.5 1 13.8 1H16.1C16.5 1 16.8333 1.15 17.1 1.45C17.3667 1.75 17.5 2.1 17.5 2.5V3H18.5C19.6 3 20.5417 3.39167 21.325 4.175C22.1083 4.95833 22.5 5.9 22.5 7V22H20.5ZM13.2 5H15.5V3H14.1L13.2 5ZM5.5 22C4.65 22 3.9375 21.7125 3.3625 21.1375C2.7875 20.5625 2.5 19.85 2.5 19V16.5C2.5 15.95 2.68333 15.4375 3.05 14.9625C3.41667 14.4875 3.9 14.2 4.5 14.1V12C4.5 11.45 4.69583 10.9792 5.0875 10.5875C5.47917 10.1958 5.95 10 6.5 10H14.5C15.05 10 15.5208 10.1958 15.9125 10.5875C16.3042 10.9792 16.5 11.45 16.5 12V14.1C17.1 14.2 17.5833 14.475 17.95 14.925C18.3167 15.375 18.5 15.9 18.5 16.5V19C18.5 19.85 18.2125 20.5625 17.6375 21.1375C17.0625 21.7125 16.35 22 15.5 22H5.5ZM6.5 12V14.5C6.8 14.75 7.04167 15.0458 7.225 15.3875C7.40833 15.7292 7.5 16.1 7.5 16.5V17H13.5V16.5C13.5 16.1 13.5917 15.7292 13.775 15.3875C13.9583 15.0458 14.2 14.75 14.5 14.5V12H6.5ZM5.5 20H15.5C15.8 20 16.0417 19.8958 16.225 19.6875C16.4083 19.4792 16.5 19.25 16.5 19V16.5C16.5 16.35 16.4542 16.2292 16.3625 16.1375C16.2708 16.0458 16.15 16 16 16C15.85 16 15.7292 16.0458 15.6375 16.1375C15.5458 16.2292 15.5 16.35 15.5 16.5V19H5.5V16.5C5.5 16.35 5.45417 16.2292 5.3625 16.1375C5.27083 16.0458 5.15 16 5 16C4.85 16 4.72917 16.0458 4.6375 16.1375C4.54583 16.2292 4.5 16.35 4.5 16.5V19C4.5 19.25 4.59167 19.4792 4.775 19.6875C4.95833 19.8958 5.2 20 5.5 20Z" fill="#0063AD"/>
</svg>
