<svg width="24" height="25" viewBox="0 0 24 25" fill="none" xmlns="http://www.w3.org/2000/svg">
<mask id="mask0_9412_9712" style="mask-type:alpha" maskUnits="userSpaceOnUse" x="0" y="0" width="24" height="25">
<rect y="0.5" width="24" height="24" fill="#D9D9D9"/>
</mask>
<g mask="url(#mask0_9412_9712)">
<path d="M7.5 22.5C6.53333 22.5 5.70833 22.1583 5.025 21.475C4.34167 20.7917 4 19.9667 4 19V6C4 5.03333 4.34167 4.20833 5.025 3.525C5.70833 2.84167 6.53333 2.5 7.5 2.5H20V17.5C19.5833 17.5 19.2292 17.6458 18.9375 17.9375C18.6458 18.2292 18.5 18.5833 18.5 19C18.5 19.4167 18.6458 19.7708 18.9375 20.0625C19.2292 20.3542 19.5833 20.5 20 20.5V22.5H7.5ZM6 15.825C6.23333 15.7083 6.475 15.625 6.725 15.575C6.975 15.525 7.23333 15.5 7.5 15.5H8V4.5H7.5C7.08333 4.5 6.72917 4.64583 6.4375 4.9375C6.14583 5.22917 6 5.58333 6 6V15.825ZM10 15.5H18V4.5H10V15.5ZM7.5 20.5H16.825C16.725 20.2667 16.6458 20.0292 16.5875 19.7875C16.5292 19.5458 16.5 19.2833 16.5 19C16.5 18.7333 16.525 18.475 16.575 18.225C16.625 17.975 16.7083 17.7333 16.825 17.5H7.5C7.06667 17.5 6.70833 17.6458 6.425 17.9375C6.14167 18.2292 6 18.5833 6 19C6 19.4333 6.14167 19.7917 6.425 20.075C6.70833 20.3583 7.06667 20.5 7.5 20.5Z" fill="#0063AD"/>
</g>
</svg>
