<svg width="25" height="24" viewBox="0 0 25 24" fill="none" xmlns="http://www.w3.org/2000/svg">
<g clip-path="url(#clip0_2_483)">
<path d="M5.5 10H19.5V12H21.5V6C21.5 4.9 20.6 4 19.5 4H18.5V2H16.5V4H8.5V2H6.5V4H5.5C4.39 4 3.51 4.9 3.51 6L3.5 20C3.5 21.1 4.39 22 5.5 22H12.5V20H5.5V10ZM5.5 6H19.5V8H5.5V6ZM23.34 16.28L22.63 16.99L20.51 14.87L21.22 14.16C21.61 13.77 22.24 13.77 22.63 14.16L23.34 14.87C23.73 15.26 23.73 15.89 23.34 16.28ZM19.8 15.58L21.92 17.7L16.62 23H14.5V20.88L19.8 15.58Z" fill="#0F186C"/>
</g>
<defs>
<clipPath id="clip0_2_483">
<rect width="24" height="24" fill="white" transform="translate(0.5)"/>
</clipPath>
</defs>
</svg>
