<svg width="40" height="40" viewBox="0 0 40 40" fill="none" xmlns="http://www.w3.org/2000/svg">
<g clip-path="url(#clip0_850_759)">
<path fill-rule="evenodd" clip-rule="evenodd" d="M35.0007 8.33325C35.4427 8.33325 35.8666 8.50885 36.1792 8.82141C36.4917 9.13397 36.6673 9.55789 36.6673 9.99992C36.6673 10.4419 36.4917 10.8659 36.1792 11.1784C35.8666 11.491 35.4427 11.6666 35.0007 11.6666V31.6666C35.0007 32.1086 34.8251 32.5325 34.5125 32.8451C34.1999 33.1577 33.776 33.3333 33.334 33.3333C32.892 33.3333 32.468 33.1577 32.1555 32.8451C31.8429 32.5325 31.6673 32.1086 31.6673 31.6666V28.3333H25.834C25.1709 28.3333 24.5351 28.0699 24.0662 27.601C23.5974 27.1322 23.334 26.4963 23.334 25.8333V18.3333H8.33398V31.6666C8.33398 32.1086 8.15839 32.5325 7.84583 32.8451C7.53327 33.1577 7.10935 33.3333 6.66732 33.3333C6.22529 33.3333 5.80137 33.1577 5.48881 32.8451C5.17625 32.5325 5.00065 32.1086 5.00065 31.6666V11.6666C4.55862 11.6666 4.1347 11.491 3.82214 11.1784C3.50958 10.8659 3.33398 10.4419 3.33398 9.99992C3.33398 9.55789 3.50958 9.13397 3.82214 8.82141C4.1347 8.50885 4.55862 8.33325 5.00065 8.33325H35.0007ZM31.6673 18.3333H26.6673V24.9999H31.6673V18.3333ZM31.6673 11.6666H26.6673V14.9999H31.6673V11.6666ZM23.334 11.6666H8.33398V14.9999H23.334V11.6666Z" fill="#0F186C"/>
</g>
<defs>
<clipPath id="clip0_850_759">
<rect width="40" height="40" fill="white"/>
</clipPath>
</defs>
</svg>
