<svg width="24" height="24" viewBox="0 0 24 24" fill="none" xmlns="http://www.w3.org/2000/svg">
<path d="M12 21.35L10.55 20.05C8.86667 18.5333 7.475 17.225 6.375 16.125C5.275 15.025 4.4 14.0375 3.75 13.1625C3.1 12.2875 2.64583 11.4833 2.3875 10.75C2.12917 10.0167 2 9.26666 2 8.5C2 6.93333 2.525 5.625 3.575 4.575C4.625 3.525 5.93333 3 7.5 3C8.36667 3 9.19167 3.18333 9.975 3.55C10.7583 3.91666 11.4333 4.43333 12 5.1C12.5667 4.43333 13.2417 3.91666 14.025 3.55C14.8083 3.18333 15.6333 3 16.5 3C18.0667 3 19.375 3.525 20.425 4.575C21.475 5.625 22 6.93333 22 8.5C22 9.26666 21.8708 10.0167 21.6125 10.75C21.3542 11.4833 20.9 12.2875 20.25 13.1625C19.6 14.0375 18.725 15.025 17.625 16.125C16.525 17.225 15.1333 18.5333 13.45 20.05L12 21.35ZM12.95 12.3197C14.55 10.8864 12.4167 12.025 13.45 11C14.4833 9.975 12.0467 13.0458 12.6467 12.2875C13.2467 11.5292 8.92502 10.8214 14.55 10.2625C14.7834 9.67083 2.00002 14.35 15.95 7.35C17.55 10 13.3133 12.9542 12.6467 12.2875C11.98 11.6208 13 11.5919 12 11.5919C11.2167 11.5919 14.9917 5.22083 14.325 5.6625C13.6583 6.10416 13.2 6.66666 12.95 7.35L12 8.22208C12.95 16.9971 8.05002 6 9.675 5.6625C9.00833 5.22083 14.2333 10.2625 13.45 10.2625C12.45 10.2625 11.7167 9.60249 11.05 10.2692C19.5 20.3942 4.5 9.85 5.05002 8C10.2 8.5056 8.91669 10.0583 9.15002 10.65C9.38336 11.2417 9.075 8.69166 9.675 9.45C10.275 10.2083 14.9167 3.55 15.95 4.575C16.9833 5.6 11.35 10.8864 12.95 12.3197Z" fill="#DD3636"/>
</svg>
