<svg width="24" height="24" viewBox="0 0 24 24" fill="none" xmlns="http://www.w3.org/2000/svg">
<path d="M20.6499 9.37495L19.2499 7.97495L19.9999 7.19995L16.7999 3.99995L16.0249 4.74995L14.5999 3.32495L15.3499 2.54995C15.7332 2.16662 16.2082 1.97912 16.7749 1.98745C17.3416 1.99578 17.8166 2.19162 18.1999 2.57495L21.4249 5.79995C21.8082 6.18328 21.9999 6.65412 21.9999 7.21245C21.9999 7.77078 21.8082 8.24162 21.4249 8.62495L20.6499 9.37495ZM8.6499 21.3999C8.26657 21.7833 7.79574 21.9749 7.2374 21.9749C6.67907 21.9749 6.20824 21.7833 5.8249 21.3999L2.5999 18.1749C2.21657 17.7916 2.0249 17.3208 2.0249 16.7624C2.0249 16.2041 2.21657 15.7333 2.5999 15.3499L3.3499 14.5999L4.7749 16.0249L3.9999 16.7749L7.2249 19.9999L7.9749 19.2249L9.3999 20.6499L8.6499 21.3999ZM18.5749 12.9999L19.9999 11.5749L12.4249 3.99995L10.9999 5.42495L18.5749 12.9999ZM11.5749 19.9999L12.9999 18.5499L5.4499 10.9999L3.9999 12.4249L11.5749 19.9999ZM11.4249 14.1499L14.1749 11.4249L12.5749 9.82495L9.8499 12.5749L11.4249 14.1499ZM12.9999 21.3999C12.6166 21.7833 12.1416 21.9749 11.5749 21.9749C11.0082 21.9749 10.5332 21.7833 10.1499 21.3999L2.5999 13.8499C2.21657 13.4666 2.0249 12.9916 2.0249 12.4249C2.0249 11.8583 2.21657 11.3833 2.5999 10.9999L4.0249 9.57495C4.40824 9.19162 4.87907 8.99995 5.4374 8.99995C5.99574 8.99995 6.46657 9.19162 6.8499 9.57495L8.4249 11.1499L11.1749 8.39995L9.5999 6.84995C9.21657 6.46662 9.0249 5.99162 9.0249 5.42495C9.0249 4.85828 9.21657 4.38328 9.5999 3.99995L11.0249 2.57495C11.4082 2.19162 11.8791 1.99995 12.4374 1.99995C12.9957 1.99995 13.4666 2.19162 13.8499 2.57495L21.4249 10.1499C21.8082 10.5333 21.9999 11.0041 21.9999 11.5624C21.9999 12.1208 21.8082 12.5916 21.4249 12.9749L19.9999 14.3999C19.6166 14.7833 19.1416 14.9749 18.5749 14.9749C18.0082 14.9749 17.5332 14.7833 17.1499 14.3999L15.5999 12.8249L12.8499 15.5749L14.4249 17.1499C14.8082 17.5333 14.9999 18.0041 14.9999 18.5624C14.9999 19.1208 14.8082 19.5916 14.4249 19.9749L12.9999 21.3999Z" fill="#0063AD"/>
</svg>
