<svg width="25" height="24" viewBox="0 0 25 24" fill="none" xmlns="http://www.w3.org/2000/svg">
<g clip-path="url(#clip0_124_25424)">
<path d="M14.3534 13.6924C13.8649 12.8655 13.1487 12.3062 12.2047 12.0145C11.2607 11.7228 10.2853 11.577 9.27838 11.577C8.27453 11.577 7.29664 11.7228 6.3447 12.0145C5.39277 12.3062 4.67899 12.8655 4.20335 13.6924H14.3534ZM2.2207 15.1924C2.2207 13.5552 2.94378 12.2933 4.38993 11.4068C5.83608 10.5203 7.46556 10.077 9.27838 10.077C11.0912 10.077 12.7207 10.5203 14.1668 11.4068C15.613 12.2933 16.336 13.5552 16.336 15.1924H2.2207ZM2.2207 18.8462V17.3462H16.336V18.8462H2.2207ZM18.336 22.5V21H19.736L21.136 7.19236H11.8553L11.663 5.69238H16.4707V1.69238H17.9706V5.69238H22.7783L21.2052 21.3193C21.1616 21.6654 21.0104 21.9487 20.7514 22.1692C20.4924 22.3897 20.1899 22.5 19.8437 22.5H18.336V22.5ZM3.02838 22.5C2.79954 22.5 2.60773 22.4226 2.45293 22.2678C2.29811 22.113 2.2207 21.9212 2.2207 21.6923V21H16.336V21.6923C16.336 21.9211 16.2586 22.113 16.1038 22.2678C15.949 22.4226 15.7572 22.5 15.5284 22.5H3.02838V22.5Z" fill="#0086EB"/>
</g>
<defs>
<clipPath id="clip0_124_25424">
<rect width="24" height="24" fill="white" transform="translate(0.5)"/>
</clipPath>
</defs>
</svg>
