<svg width="25" height="24" viewBox="0 0 25 24" fill="none" xmlns="http://www.w3.org/2000/svg">
<path d="M9.5 21.75V14.35C9.5 13.7899 9.5 13.5099 9.609 13.296C9.70487 13.1078 9.85785 12.9549 10.046 12.859C10.2599 12.75 10.54 12.75 11.1 12.75H13.9C14.4601 12.75 14.7401 12.75 14.954 12.859C15.1422 12.9549 15.2951 13.1078 15.391 13.296C15.5 13.5099 15.5 13.7899 15.5 14.35V21.75M2.5 10.25L11.54 3.47C11.8843 3.21181 12.0564 3.08271 12.2454 3.03294C12.4123 2.98902 12.5877 2.98902 12.7546 3.03295C12.9436 3.08271 13.1157 3.21181 13.46 3.47L22.5 10.25M4.5 8.75V18.55C4.5 19.6701 4.5 20.2302 4.71799 20.658C4.90974 21.0343 5.2157 21.3403 5.59202 21.532C6.01985 21.75 6.5799 21.75 7.7 21.75H17.3C18.4201 21.75 18.9802 21.75 19.408 21.532C19.7843 21.3403 20.0903 21.0343 20.282 20.658C20.5 20.2302 20.5 19.6701 20.5 18.55V8.75L14.42 4.19C13.7315 3.67361 13.3872 3.41542 13.0091 3.31589C12.6754 3.22804 12.3246 3.22804 11.9909 3.31589C11.6128 3.41542 11.2685 3.67361 10.58 4.19L4.5 8.75Z" stroke="#0F186C" stroke-width="2" stroke-linecap="round" stroke-linejoin="round"/>
</svg>
