<svg width="24" height="24" viewBox="0 0 24 24" fill="none" xmlns="http://www.w3.org/2000/svg">
<mask id="mask0_124_25428" style="mask-type:luminance" maskUnits="userSpaceOnUse" x="0" y="0" width="24" height="24">
<path d="M0.5 23.5V0.5H23.5V23.5H0.5Z" fill="white" stroke="white"/>
</mask>
<g mask="url(#mask0_124_25428)">
<path fill-rule="evenodd" clip-rule="evenodd" d="M12.02 3.59611C7.36762 3.59611 3.59611 7.36762 3.59611 12.02C3.59611 16.6724 7.36762 20.4439 12.02 20.4439C16.6724 20.4439 20.4439 16.6724 20.4439 12.02C20.4439 7.36762 16.6724 3.59611 12.02 3.59611ZM2 12.02C2 6.48612 6.48612 2 12.02 2C17.5539 2 22.04 6.48612 22.04 12.02C22.04 17.5539 17.5539 22.04 12.02 22.04C6.48612 22.04 2 17.5539 2 12.02Z" fill="#0086EB"/>
<path d="M11.9762 9.27073C12.6863 9.27073 13.2619 8.69508 13.2619 7.98497C13.2619 7.27487 12.6863 6.69922 11.9762 6.69922C11.2661 6.69922 10.6904 7.27487 10.6904 7.98497C10.6904 8.69508 11.2661 9.27073 11.9762 9.27073Z" fill="#0086EB"/>
<path fill-rule="evenodd" clip-rule="evenodd" d="M11.9762 7.58595C11.7558 7.58595 11.5772 7.7646 11.5772 7.98497C11.5772 8.20535 11.7558 8.384 11.9762 8.384C12.1966 8.384 12.3752 8.20535 12.3752 7.98497C12.3752 7.7646 12.1966 7.58595 11.9762 7.58595ZM10.6904 7.98497C10.6904 7.27487 11.2661 6.69922 11.9762 6.69922C12.6863 6.69922 13.2619 7.27487 13.2619 7.98497C13.2619 8.69508 12.6863 9.27073 11.9762 9.27073C11.2661 9.27073 10.6904 8.69508 10.6904 7.98497Z" fill="#0086EB"/>
<path d="M12.5516 10.4238H11.4875C11.2916 10.4238 11.1328 10.5826 11.1328 10.7785V17.6063C11.1328 17.8022 11.2916 17.961 11.4875 17.961H12.5516C12.7475 17.961 12.9063 17.8022 12.9063 17.6063V10.7785C12.9063 10.5826 12.7475 10.4238 12.5516 10.4238Z" fill="#0086EB"/>
</g>
</svg>
