<svg width="24" height="20" viewBox="0 0 24 20" fill="none" xmlns="http://www.w3.org/2000/svg">
<path d="M23.2968 0H0.703176C0.314389 0 0 0.31519 0 0.703177V18.9842C0.0127996 19.3722 0.337589 19.6769 0.726376 19.6641C1.09676 19.6521 1.39435 19.3546 1.40635 18.9842V18.281H7.78134V18.9842C7.79414 19.3722 8.11893 19.6769 8.50772 19.6641C8.8781 19.6521 9.1757 19.3546 9.18769 18.9842V18.281H14.8123V18.9842C14.8251 19.3722 15.1499 19.6769 15.5387 19.6641C15.9091 19.6521 16.2067 19.3546 16.2187 18.9842V18.281H22.5936V18.9842C22.6064 19.3722 22.9312 19.6769 23.32 19.6641C23.6904 19.6521 23.988 19.3546 24 18.9842V0.703977C23.9992 0.31519 23.6848 0.000799973 23.2968 0ZM22.5936 7.03097H21.8913C21.5033 7.04377 21.1985 7.36856 21.2113 7.75734C21.2233 8.12773 21.5209 8.42532 21.8913 8.43732H22.5944V16.8746H1.40635V1.40635H7.78134V7.03097H7.07897C6.69098 7.04377 6.38619 7.36856 6.39899 7.75734C6.41099 8.12773 6.70858 8.42532 7.07897 8.43732H7.78214V14.7659C7.79494 15.1539 8.11973 15.4587 8.50852 15.4459C8.8789 15.4339 9.17649 15.1363 9.18849 14.7659V1.40635H14.8131V7.03097H14.1107C13.7227 7.04377 13.418 7.36856 13.4308 7.75734C13.4428 8.12773 13.7403 8.42532 14.1107 8.43732H14.8139V14.7659C14.8267 15.1539 15.1515 15.4587 15.5403 15.4459C15.9107 15.4339 16.2083 15.1363 16.2203 14.7659V1.40635H22.5952L22.5936 7.03097ZM5.67181 14.0619H3.51588C3.1279 14.0747 2.82311 14.3995 2.83591 14.7883C2.84791 15.1587 3.1455 15.4563 3.51588 15.4683H5.67181C6.0598 15.4555 6.36459 15.1307 6.35179 14.7419C6.33979 14.3715 6.0422 14.0739 5.67181 14.0619ZM5.67181 11.25H3.51588C3.1279 11.2628 2.82311 11.5876 2.83591 11.9764C2.84791 12.3468 3.1455 12.6444 3.51588 12.6564H5.67181C6.0598 12.6436 6.36459 12.3188 6.35179 11.93C6.33979 11.5596 6.0422 11.262 5.67181 11.25ZM13.4068 14.0619H11.2972C10.9092 14.0747 10.6044 14.3995 10.6172 14.7883C10.6292 15.1587 10.9268 15.4563 11.2972 15.4683H13.4068C13.7947 15.4555 14.0995 15.1307 14.0867 14.7419C14.0747 14.3715 13.7771 14.0739 13.4068 14.0619ZM13.4068 11.25H11.2972C10.9092 11.2628 10.6044 11.5876 10.6172 11.9764C10.6292 12.3468 10.9268 12.6444 11.2972 12.6564H13.4068C13.7947 12.6436 14.0995 12.3188 14.0867 11.93C14.0747 11.5596 13.7771 11.262 13.4068 11.25ZM18.3282 15.4683H20.4841C20.8721 15.4555 21.1769 15.1307 21.1641 14.7419C21.1521 14.3715 20.8545 14.0739 20.4841 14.0619H18.3282C17.9402 14.0747 17.6354 14.3995 17.6482 14.7883C17.6602 15.1587 17.957 15.4563 18.3282 15.4683ZM18.3282 12.6564H20.4841C20.8721 12.6436 21.1769 12.3188 21.1641 11.93C21.1521 11.5596 20.8545 11.262 20.4841 11.25H18.3282C17.9402 11.2628 17.6354 11.5876 17.6482 11.9764C17.6602 12.346 17.957 12.6436 18.3282 12.6564ZM3.51588 4.21906H5.67181C6.0598 4.20626 6.36459 3.88147 6.35179 3.49268C6.33979 3.1223 6.0422 2.82471 5.67181 2.81271H3.51588C3.1279 2.82551 2.82311 3.1503 2.83591 3.53908C2.84791 3.90947 3.1455 4.20706 3.51588 4.21906ZM11.2972 4.21906H13.4068C13.7947 4.20626 14.0995 3.88147 14.0867 3.49268C14.0747 3.1223 13.7771 2.82471 13.4068 2.81271H11.2972C10.9092 2.82551 10.6044 3.1503 10.6172 3.53908C10.6284 3.90947 10.926 4.20706 11.2972 4.21906ZM18.3282 4.21906H20.4841C20.8721 4.20626 21.1769 3.88147 21.1641 3.49268C21.1521 3.1223 20.8545 2.82471 20.4841 2.81271H18.3282C17.9402 2.82551 17.6354 3.1503 17.6482 3.53908C17.6602 3.90947 17.957 4.20706 18.3282 4.21906Z" fill="white"/>
</svg>
