<svg width="24" height="24" viewBox="0 0 24 24" fill="none" xmlns="http://www.w3.org/2000/svg">
<path d="M18.7983 7.74578C16.9074 5.42707 14.4845 4.59614 11.6451 5.18788C8.73176 5.79503 6.90548 7.69503 6.28106 10.5592C5.41878 14.5145 7.90595 18.3826 11.9206 19.0446C14.7552 19.5121 17.191 18.6714 18.9784 15.9924C19.2445 15.5936 19.4612 15.4759 19.8159 15.8867C21.0911 17.3643 22.381 18.8293 23.6568 20.3063C23.8208 20.4962 24.1068 20.6935 23.9588 20.981C23.8225 21.2456 23.4964 21.1992 23.2385 21.1994C18.4571 21.2021 13.6748 21.2559 8.89466 21.1792C5.09674 21.1183 1.82093 18.7192 0.546978 15.1165C0.0667632 13.7585 -0.154467 12.3613 0.118781 10.835C0.802802 7.01431 3.01957 4.6485 6.58337 3.41289C7.4083 3.12688 8.27568 2.99837 9.1621 3.00002C13.8417 3.00873 18.5214 3.0026 23.201 3.0018C23.3027 3.00178 23.4046 3.00013 23.5061 3.00604C23.6916 3.01684 23.8882 3.03028 23.9588 3.24121C24.0186 3.42007 23.8939 3.53895 23.782 3.66394C22.9955 4.54242 22.2142 5.42564 21.4311 6.3072C20.972 6.82398 20.5145 7.34211 20.053 7.85675C19.4137 8.56972 19.3407 8.56414 18.7983 7.74578Z" fill="#FAFAFF"/>
<path d="M8.44084 9.93297C11.1368 9.9309 13.7772 9.93092 16.4175 9.93147C16.58 9.9315 16.7426 9.93139 16.9048 9.93875C17.1506 9.9499 17.4095 9.95775 17.5297 10.2241C17.65 10.4908 17.4927 10.6862 17.3257 10.8755C16.4795 11.8341 15.6417 12.8002 14.79 13.7539C13.8438 14.8133 12.8717 15.8499 11.9399 16.9217C11.5716 17.3453 11.2234 17.4072 10.72 17.1709C8.30506 16.0372 7.02637 13.4495 7.66208 10.8655C7.7574 10.4781 7.81504 9.98703 8.44084 9.93297Z" fill="#FAFAFF"/>
</svg>
