<svg width="24" height="24" viewBox="0 0 24 24" fill="none" xmlns="http://www.w3.org/2000/svg">
<mask id="mask0_5763_91676" style="mask-type:alpha" maskUnits="userSpaceOnUse" x="0" y="0" width="24" height="25">
<rect y="0.000244141" width="24" height="24" fill="#D9D9D9"/>
</mask>
<g mask="url(#mask0_5763_91676)">
<path d="M15 21.0002L9 18.9002L4.35 20.7002C4.01667 20.8336 3.70833 20.7961 3.425 20.5877C3.14167 20.3794 3 20.1002 3 19.7502V5.75024C3 5.53358 3.0625 5.34191 3.1875 5.17524C3.3125 5.00858 3.48333 4.88358 3.7 4.80024L9 3.00024L15 5.10024L19.65 3.30024C19.9833 3.16691 20.2917 3.20441 20.575 3.41274C20.8583 3.62108 21 3.90024 21 4.25024V18.2502C21 18.4669 20.9375 18.6586 20.8125 18.8252C20.6875 18.9919 20.5167 19.1169 20.3 19.2002L15 21.0002ZM14 18.5502V6.85024L10 5.45024V17.1502L14 18.5502ZM16 18.5502L19 17.5502V5.70024L16 6.85024V18.5502ZM5 18.3002L8 17.1502V5.45024L5 6.45024V18.3002Z" fill="#3B4B59"/>
</g>
</svg>
