<svg width="120" height="120" viewBox="0 0 120 120" fill="none" xmlns="http://www.w3.org/2000/svg">
<g clip-path="url(#clip0_1503_11301)">
<path d="M60 70C68.3 70 75 63.3 75 55V25C75 16.7 68.3 10 60 10C51.7 10 45 16.7 45 25V55C45 63.3 51.7 70 60 70Z" fill="url(#paint0_linear_1503_11301)"/>
<path d="M85 55C85 68.8 73.8 80 60 80C46.2 80 35 68.8 35 55H25C25 72.65 38.05 87.15 55 89.6V105H65V89.6C81.95 87.15 95 72.65 95 55H85Z" fill="url(#paint1_linear_1503_11301)"/>
</g>
<defs>
<linearGradient id="paint0_linear_1503_11301" x1="60" y1="10" x2="60" y2="70" gradientUnits="userSpaceOnUse">
<stop stop-color="white"/>
<stop offset="1" stop-color="white" stop-opacity="0.35"/>
</linearGradient>
<linearGradient id="paint1_linear_1503_11301" x1="60" y1="55" x2="60" y2="105" gradientUnits="userSpaceOnUse">
<stop stop-color="white"/>
<stop offset="1" stop-color="white" stop-opacity="0.35"/>
</linearGradient>
<clipPath id="clip0_1503_11301">
<rect width="120" height="120" fill="white"/>
</clipPath>
</defs>
</svg>
