<svg width="40" height="40" viewBox="0 0 40 40" fill="none" xmlns="http://www.w3.org/2000/svg">
<path d="M8.33333 35C7.41667 35 6.63194 34.6736 5.97917 34.0208C5.32639 33.3681 5 32.5833 5 31.6667V8.33333C5 7.41667 5.32639 6.63194 5.97917 5.97917C6.63194 5.32639 7.41667 5 8.33333 5H26.6667L35 13.3333V31.6667C35 32.5833 34.6736 33.3681 34.0208 34.0208C33.3681 34.6736 32.5833 35 31.6667 35H8.33333ZM8.33333 31.6667H31.6667V15H25V8.33333H8.33333V31.6667ZM11.6667 28.3333H28.3333V25H11.6667V28.3333ZM11.6667 15H20V11.6667H11.6667V15ZM11.6667 21.6667H28.3333V18.3333H11.6667V21.6667Z" fill="#0F186C"/>
</svg>
