<svg width="25" height="24" viewBox="0 0 25 24" fill="none" xmlns="http://www.w3.org/2000/svg">
<path d="M15.9636 19C15.9636 20.6569 14.6204 22 12.9636 22C11.3067 22 9.96359 20.6569 9.96359 19M14.7601 6.23856C15.1956 5.78864 15.4636 5.17562 15.4636 4.5C15.4636 3.11929 14.3443 2 12.9636 2C11.5829 2 10.4636 3.11929 10.4636 4.5C10.4636 5.17562 10.7316 5.78864 11.1671 6.23856M18.9636 11.2C18.9636 9.82087 18.3314 8.49823 17.2062 7.52304C16.081 6.54786 14.5549 6 12.9636 6C11.3723 6 9.84617 6.54786 8.72095 7.52304C7.59573 8.49823 6.96359 9.82087 6.96359 11.2C6.96359 13.4818 6.39772 15.1506 5.69165 16.3447C4.88693 17.7056 4.48456 18.3861 4.50045 18.5486C4.51863 18.7346 4.5521 18.7933 4.70293 18.9036C4.83476 19 5.4971 19 6.82178 19H19.1054C20.4301 19 21.0924 19 21.2242 18.9036C21.3751 18.7933 21.4085 18.7346 21.4267 18.5486C21.4426 18.3861 21.0403 17.7056 20.2355 16.3447C19.5295 15.1506 18.9636 13.4818 18.9636 11.2Z" stroke="#5D5D6B" stroke-width="2" stroke-linecap="round" stroke-linejoin="round"/>
</svg>
