<svg width="32" height="32" viewBox="0 0 32 32" fill="none" xmlns="http://www.w3.org/2000/svg">
<path d="M27.6013 2H11.1176C10.7606 2 10.4182 2.14792 10.1658 2.41122C9.91331 2.67452 9.77148 3.03164 9.77148 3.404V5L19.0623 8L28.9475 5V3.404C28.9475 3.03164 28.8057 2.67452 28.5532 2.41122C28.3008 2.14792 27.9584 2 27.6013 2Z" fill="#0364B8"/>
<path d="M30.5291 17.4049C30.6696 16.9445 30.7817 16.4753 30.8647 15.9999C30.8646 15.8832 30.835 15.7685 30.779 15.6674C30.7229 15.5663 30.6424 15.4823 30.5454 15.4239L30.533 15.4159L30.5291 15.4139L20.1377 9.23994C20.0928 9.2096 20.0464 9.18189 19.9986 9.15694C19.7999 9.05404 19.581 9.00049 19.3591 9.00049C19.1372 9.00049 18.9183 9.05404 18.7196 9.15694C18.6718 9.18155 18.6254 9.20893 18.5806 9.23894L8.1891 15.4149L8.18526 15.4169L8.17375 15.4239C8.07661 15.4822 7.99588 15.5661 7.93967 15.6672C7.88345 15.7683 7.85374 15.8831 7.85352 15.9999C7.93657 16.4753 8.04866 16.9445 8.1891 17.4049L19.2076 25.8099L30.5291 17.4049Z" fill="#0A2767"/>
<path d="M23.1943 5H16.4827L14.5449 8L16.4827 11L23.1943 17H28.9471V11L23.1943 5Z" fill="#28A8EA"/>
<path d="M9.77148 5H16.4831V11H9.77148V5Z" fill="#0078D4"/>
<path d="M23.1943 5H28.9471V11H23.1943V5Z" fill="#50D9FF"/>
<path d="M23.1947 17L16.4831 11H9.77148V17L16.4831 23L26.8688 24.768L23.1947 17Z" fill="#0364B8"/>
<path d="M16.4834 11H23.195V17H16.4834V11Z" fill="#0078D4"/>
<path d="M9.77148 17H16.4831V23H9.77148V17Z" fill="#064A8C"/>
<path d="M23.1943 17H28.9471V23H23.1943V17Z" fill="#0078D4"/>
<path opacity="0.5" d="M19.5415 25.218L8.23438 16.618L8.70898 15.748C8.70898 15.748 19.0113 21.868 19.1685 21.96C19.2329 21.9869 19.3018 21.9997 19.3711 21.9976C19.4403 21.9955 19.5085 21.9787 19.5712 21.948L30.0538 15.718L30.5294 16.587L19.5415 25.218Z" fill="#0A2767"/>
<path d="M30.5459 16.577L30.5325 16.585L30.5296 16.587L20.1381 22.761C19.9317 22.8998 19.6947 22.981 19.4496 22.997C19.2045 23.0129 18.9596 22.963 18.7383 22.852L22.3568 27.913L30.2707 29.71V29.714C30.4548 29.5751 30.6047 29.3926 30.708 29.1816C30.8114 28.9706 30.8652 28.737 30.8652 28.5V16C30.8652 16.1169 30.8357 16.2318 30.7797 16.3331C30.7236 16.4344 30.643 16.5185 30.5459 16.577Z" fill="#1490DF"/>
<path opacity="0.05" d="M30.8652 28.5V27.762L21.2935 22.074L20.1381 22.761C19.9317 22.8998 19.6947 22.981 19.4496 22.997C19.2045 23.0129 18.9596 22.963 18.7383 22.852L22.3568 27.913L30.2707 29.71V29.714C30.4548 29.5751 30.6047 29.3926 30.708 29.1816C30.8114 28.9705 30.8652 28.7369 30.8652 28.5Z" fill="black"/>
<path opacity="0.1" d="M30.8172 28.8829L20.3251 22.6499L20.1381 22.7599C19.9318 22.8989 19.6948 22.9803 19.4497 22.9964C19.2046 23.0125 18.9597 22.9627 18.7383 22.8519L22.3568 27.9129L30.2707 29.7099V29.7139C30.5391 29.5111 30.7321 29.2179 30.8172 28.8839V28.8829Z" fill="black"/>
<path d="M8.18912 16.59V16.58H8.17953L8.15077 16.56C8.05911 16.5013 7.98357 16.4189 7.93149 16.3208C7.8794 16.2227 7.85255 16.1122 7.85354 16V28.5C7.85329 28.6971 7.89032 28.8922 7.9625 29.0743C8.03469 29.2564 8.14062 29.4219 8.27422 29.5612C8.40782 29.7006 8.56646 29.8111 8.74107 29.8864C8.91567 29.9616 9.1028 30.0003 9.29174 30H29.4265C29.5463 29.9988 29.6655 29.982 29.7813 29.95C29.8414 29.9391 29.8995 29.9189 29.9539 29.89C29.9743 29.8879 29.9939 29.8811 30.0114 29.87C30.0899 29.8365 30.164 29.7929 30.2319 29.74C30.2511 29.73 30.2607 29.73 30.2703 29.71L8.18912 16.59Z" fill="#28A8EA"/>
<path opacity="0.1" d="M17.4415 24.667V8.333C17.4405 7.97979 17.3055 7.64135 17.0661 7.39159C16.8266 7.14183 16.5021 7.00106 16.1634 7H9.79988V14.456L8.1891 15.414L8.1843 15.416L8.1728 15.423C8.07569 15.4815 7.99506 15.5656 7.93901 15.6669C7.88296 15.7682 7.85348 15.8831 7.85352 16V26H16.1634C16.5021 25.9989 16.8266 25.8582 17.0661 25.6084C17.3055 25.3587 17.4405 25.0202 17.4415 24.667Z" fill="black"/>
<path opacity="0.2" d="M16.4827 25.667V9.333C16.4817 8.97979 16.3467 8.64135 16.1073 8.39159C15.8678 8.14183 15.5433 8.00106 15.2046 8H9.79988V14.456L8.1891 15.414L8.1843 15.416L8.1728 15.423C8.07569 15.4815 7.99506 15.5656 7.93901 15.6669C7.88296 15.7682 7.85348 15.8831 7.85352 16V27H15.2046C15.5433 26.9989 15.8678 26.8582 16.1073 26.6084C16.3467 26.3587 16.4817 26.0202 16.4827 25.667Z" fill="black"/>
<path opacity="0.2" d="M16.4827 23.667V9.333C16.4817 8.97979 16.3467 8.64135 16.1073 8.39159C15.8678 8.14183 15.5433 8.00106 15.2046 8H9.79988V14.456L8.1891 15.414L8.1843 15.416L8.1728 15.423C8.07569 15.4815 7.99506 15.5656 7.93901 15.6669C7.88296 15.7682 7.85348 15.8831 7.85352 16V25H15.2046C15.5433 24.9989 15.8678 24.8582 16.1073 24.6084C16.3467 24.3587 16.4817 24.0202 16.4827 23.667Z" fill="black"/>
<path opacity="0.2" d="M15.5239 23.667V9.333C15.5229 8.97979 15.3879 8.64135 15.1485 8.39159C14.909 8.14183 14.5845 8.00106 14.2458 8H9.79988V14.456L8.1891 15.414L8.1843 15.416L8.1728 15.423C8.07569 15.4815 7.99506 15.5656 7.93901 15.6669C7.88296 15.7682 7.85348 15.8831 7.85352 16V25H14.2458C14.5845 24.9989 14.909 24.8582 15.1485 24.6084C15.3879 24.3587 15.5229 24.0202 15.5239 23.667Z" fill="black"/>
<path d="M1.46167 8H14.2463C14.5853 8 14.9104 8.14044 15.1501 8.39043C15.3897 8.64041 15.5244 8.97947 15.5244 9.333V22.667C15.5244 23.0205 15.3897 23.3596 15.1501 23.6096C14.9104 23.8596 14.5853 24 14.2463 24H1.46167C1.12271 24 0.797621 23.8596 0.557935 23.6096C0.318248 23.3596 0.183594 23.0205 0.183594 22.667L0.183594 9.333C0.183594 8.97947 0.318248 8.64041 0.557935 8.39043C0.797621 8.14044 1.12271 8 1.46167 8Z" fill="#0078D4"/>
<path d="M3.89147 13.4681C4.23108 12.7132 4.77935 12.0815 5.46582 11.6541C6.22636 11.2 7.09232 10.9737 7.96829 11.0001C8.77939 10.9818 9.57972 11.1962 10.2819 11.6201C10.9428 12.0307 11.4751 12.6328 11.814 13.3531C12.1832 14.1471 12.3672 15.0209 12.351 15.9031C12.3687 16.8247 12.1792 17.7377 11.7977 18.5691C11.4515 19.3151 10.9031 19.9388 10.2205 20.3631C9.49082 20.8005 8.6601 21.0208 7.81872 21.0001C6.98982 21.0207 6.17137 20.8038 5.4524 20.3731C4.78617 19.9618 4.2476 19.3592 3.90106 18.6371C3.52932 17.8549 3.3429 16.991 3.35742 16.1181C3.34134 15.2041 3.52393 14.2981 3.89147 13.4681ZM5.56937 17.7261C5.75029 18.2033 6.05713 18.6173 6.45435 18.9201C6.85911 19.2156 7.34399 19.368 7.83789 19.3551C8.36404 19.3765 8.88259 19.2189 9.31541 18.9061C9.7082 18.6035 10.0072 18.1873 10.1754 17.7091C10.3641 17.1764 10.457 16.612 10.4497 16.0441C10.4555 15.4709 10.368 14.9008 10.1908 14.3581C10.0344 13.8699 9.74609 13.4393 9.36047 13.1181C8.93907 12.7896 8.42203 12.6226 7.89638 12.6451C7.39173 12.6318 6.89599 12.7855 6.48023 13.0841C6.07522 13.3874 5.7613 13.8047 5.57513 14.2871C5.16328 15.3931 5.16089 16.6194 5.56842 17.7271L5.56937 17.7261Z" fill="white"/>
</svg>
