<svg width="70" height="24" viewBox="0 0 70 24" fill="none" xmlns="http://www.w3.org/2000/svg">
<path d="M69.1343 20.5127C68.9059 20.5124 68.687 20.4216 68.5256 20.2602C68.3642 20.0987 68.2733 19.8798 68.2731 19.6515V14.5406C68.2568 13.4275 67.8032 12.3655 67.0103 11.5841C66.2174 10.8026 65.1489 10.3646 64.0356 10.3646C62.9224 10.3646 61.8538 10.8026 61.0609 11.5841C60.268 12.3655 59.8144 13.4275 59.7981 14.5406V19.6515C59.7809 19.8676 59.6829 20.0693 59.5237 20.2164C59.3644 20.3635 59.1556 20.4452 58.9388 20.4452C58.722 20.4452 58.5131 20.3635 58.3539 20.2164C58.1946 20.0693 58.0966 19.8676 58.0794 19.6515V14.5406C58.0794 12.9599 58.7074 11.4439 59.8251 10.3261C60.9429 9.20832 62.4589 8.58037 64.0397 8.58037C65.6204 8.58037 67.1365 9.20832 68.2542 10.3261C69.372 11.4439 69.9999 12.9599 69.9999 14.5406V19.6515C69.9998 19.7649 69.9773 19.8772 69.9337 19.982C69.8901 20.0867 69.8263 20.1818 69.7459 20.2618C69.6654 20.3418 69.57 20.4051 69.4651 20.4482C69.3601 20.4912 69.2477 20.5131 69.1343 20.5127Z" fill="#114DAC"/>
<path d="M40.5605 20.5127C40.3322 20.5124 40.1133 20.4216 39.9518 20.2602C39.7904 20.0987 39.6996 19.8798 39.6994 19.6515V14.5406C39.6831 13.4275 39.2295 12.3655 38.4366 11.5841C37.6436 10.8026 36.5751 10.3646 35.4619 10.3646C34.3486 10.3646 33.2801 10.8026 32.4871 11.5841C31.6942 12.3655 31.2406 13.4275 31.2244 14.5406V19.6515C31.2171 19.8752 31.1231 20.0873 30.9624 20.2429C30.8016 20.3986 30.5865 20.4856 30.3627 20.4856C30.1389 20.4856 29.9239 20.3986 29.7631 20.2429C29.6023 20.0873 29.5084 19.8752 29.5011 19.6515V14.5406C29.5011 12.9599 30.1291 11.4439 31.2469 10.3261C32.3646 9.20832 33.8806 8.58037 35.4614 8.58037C37.0422 8.58037 38.5582 9.20832 39.6759 10.3261C40.7937 11.4439 41.4217 12.9599 41.4217 14.5406V19.6515C41.4214 19.8798 41.3306 20.0987 41.1692 20.2602C41.0077 20.4216 40.7888 20.5124 40.5605 20.5127Z" fill="#114DAC"/>
<path d="M14.0554 20.5127C13.8271 20.5124 13.6082 20.4216 13.4467 20.2602C13.2853 20.0987 13.1945 19.8798 13.1942 19.6515V3.89648C13.2084 3.6782 13.3051 3.4735 13.4647 3.32392C13.6243 3.17435 13.8348 3.09111 14.0536 3.09111C14.2723 3.09111 14.4828 3.17435 14.6424 3.32392C14.802 3.4735 14.8987 3.6782 14.9129 3.89648V19.6515C14.9127 19.8792 14.8224 20.0976 14.6617 20.2589C14.501 20.4203 14.2831 20.5115 14.0554 20.5127Z" fill="#114DAC"/>
<path d="M27.3817 20.5027C27.2169 20.5285 27.0483 20.5057 26.8963 20.437C26.7443 20.3684 26.6156 20.257 26.526 20.1164L26.279 19.7347C26.2419 19.679 26.1856 19.639 26.1208 19.6223C26.0561 19.6056 25.9874 19.6134 25.928 19.6442L25.5246 19.8532C24.6779 20.2928 23.5816 20.5153 22.2681 20.5153C20.3893 20.5153 18.8452 19.9192 17.8022 18.7903C16.8262 17.7347 16.3105 16.271 16.3105 14.5578C16.3125 12.9778 16.9406 11.463 18.0573 10.3453C19.1739 9.22763 20.6882 8.59814 22.2681 8.59479H22.5739C25.341 8.59479 28.1144 10.8463 28.1144 13.6143V19.6261C28.1169 19.8356 28.0444 20.0391 27.91 20.1998C27.7757 20.3605 27.5883 20.4679 27.3817 20.5027ZM22.2835 10.3153C21.1692 10.3128 20.0986 10.7487 19.3031 11.529C18.5076 12.3093 18.051 13.3713 18.032 14.4854C18.0021 17.0182 19.7507 18.7903 22.2663 18.7903C23.7227 18.7903 25.0036 18.3923 26.0755 17.6062C26.1729 17.5347 26.2522 17.4413 26.3069 17.3335C26.3616 17.2257 26.3901 17.1065 26.3903 16.9857V13.6116C26.3903 11.7934 24.3893 10.3153 22.572 10.3153H22.2835Z" fill="#114DAC"/>
<path d="M5.77038 3H5.26924C3.87302 3.00406 2.53514 3.5605 1.54786 4.54779C0.560573 5.53507 0.00412711 6.87295 7.00266e-05 8.26917V19.6262C-0.0026752 19.8435 0.0753804 20.0542 0.219109 20.2173C0.362838 20.3804 0.562004 20.4844 0.778008 20.509C0.897273 20.52 1.01751 20.5059 1.13105 20.4678C1.24458 20.4297 1.34894 20.3683 1.43745 20.2877C1.52596 20.207 1.59669 20.1087 1.64512 19.9992C1.69356 19.8897 1.71864 19.7713 1.71877 19.6515V15.2679C1.71877 15.1758 1.75537 15.0874 1.82051 15.0223C1.88565 14.9571 1.974 14.9205 2.06613 14.9205H5.84636C6.63337 14.9188 7.41226 14.7614 8.13823 14.4575C8.8642 14.1537 9.52293 13.7092 10.0765 13.1499C10.6301 12.5905 11.0676 11.9271 11.3639 11.198C11.6602 10.4689 11.8095 9.68845 11.803 8.90147C11.7732 5.62328 9.05129 3 5.77038 3ZM5.77581 13.1982H2.06703C2.02134 13.1983 1.97607 13.1894 1.93383 13.172C1.89158 13.1546 1.85318 13.1291 1.82083 13.0968C1.78848 13.0645 1.76281 13.0262 1.7453 12.984C1.72778 12.9418 1.71877 12.8966 1.71877 12.8509V8.26917C1.72068 7.32811 2.09536 6.42615 2.76079 5.76072C3.42622 5.09529 4.32819 4.72061 5.26924 4.7187H5.84636C6.40926 4.71981 6.96631 4.83292 7.48506 5.05145C8.0038 5.26999 8.47387 5.58957 8.86788 5.99157C9.26189 6.39358 9.57197 6.86998 9.78003 7.39301C9.98809 7.91605 10.09 8.47526 10.0798 9.03806C10.0409 11.361 8.09515 13.1982 5.77581 13.1982Z" fill="#114DAC"/>
<path d="M49.2021 9.18274V7.6133C47.5515 7.74503 46.0019 8.46046 44.831 9.63129C43.6602 10.8021 42.9448 12.3518 42.813 14.0023H44.3789C44.5073 12.7674 45.0568 11.6142 45.9351 10.7366C46.8134 9.85891 47.967 9.31025 49.2021 9.18274Z" fill="#5AE203"/>
<path d="M50.2948 19.9219V21.4886C51.9453 21.3569 53.495 20.6415 54.6658 19.4707C55.8366 18.2998 56.5521 16.7502 56.6838 15.0996H55.118C54.9903 16.3351 54.4411 17.489 53.5627 18.3672C52.6843 19.2455 51.5303 19.7945 50.2948 19.9219Z" fill="#5AE203"/>
<path d="M55.118 14.006H56.6847C56.5538 12.3546 55.8386 10.804 54.6675 9.63239C53.4964 8.4608 51.9461 7.74494 50.2948 7.6133V9.18274C51.5304 9.3104 52.6844 9.85958 53.5628 10.738C54.4411 11.6163 54.9903 12.7703 55.118 14.006Z" fill="#5AE203"/>
<path d="M44.3789 15.0996H42.813C42.9448 16.7502 43.6602 18.2998 44.831 19.4707C46.0019 20.6415 47.5515 21.3569 49.2021 21.4886V19.9219C47.9665 19.7945 46.8125 19.2455 45.9342 18.3672C45.0558 17.489 44.5066 16.3351 44.3789 15.0996Z" fill="#5AE203"/>
</svg>
