<svg width="24" height="24" viewBox="0 0 24 24" fill="none" xmlns="http://www.w3.org/2000/svg">
<path d="M12 2.432V21.432M20 11.932C20 16.8404 14.646 20.4104 12.698 21.5469C12.4766 21.676 12.3659 21.7406 12.2097 21.7741C12.0884 21.8001 11.9116 21.8001 11.7903 21.7741C11.6341 21.7406 11.5234 21.676 11.302 21.5469C9.35396 20.4104 4 16.8404 4 11.932V7.1496C4 6.35009 4 5.95033 4.13076 5.6067C4.24627 5.30314 4.43398 5.03228 4.67766 4.81753C4.9535 4.57444 5.3278 4.43408 6.0764 4.15335L11.4382 2.14267C11.6461 2.06471 11.75 2.02573 11.857 2.01028C11.9518 1.99657 12.0482 1.99657 12.143 2.01028C12.25 2.02573 12.3539 2.06471 12.5618 2.14267L17.9236 4.15335C18.6722 4.43408 19.0465 4.57444 19.3223 4.81753C19.566 5.03228 19.7537 5.30314 19.8692 5.6067C20 5.95033 20 6.35009 20 7.1496V11.932Z" stroke="#232329" stroke-width="2" stroke-linecap="round" stroke-linejoin="round"/>
</svg>
