<svg width="80" height="24" viewBox="0 0 80 24" fill="none" xmlns="http://www.w3.org/2000/svg">
<g clip-path="url(#clip0_14_707)">
<path fill-rule="evenodd" clip-rule="evenodd" d="M19.7429 8.0049C18.9112 8.0049 18.1983 8.30193 17.6043 8.77717V8.12371H15.5845V15.787H17.6637V10.9158C17.9607 10.4999 18.6736 9.96527 19.5646 9.96527C19.8617 9.96527 20.1587 10.0247 20.3963 10.0841V8.12371C20.1587 8.06431 19.9211 8.0049 19.7429 8.0049ZM1.92131 13.4108C2.45596 13.886 3.28763 14.183 4.00049 14.183C4.53514 14.183 5.01038 13.886 5.01038 13.5296C5.01038 12.3415 1.26786 12.7573 1.26786 10.3217C1.26786 8.83657 2.69358 7.9455 4.17871 7.9455C5.1886 7.9455 6.25789 8.30193 6.79253 8.71776L5.84205 10.2029C5.42622 9.96527 4.95098 9.66825 4.35692 9.66825C3.76287 9.66825 3.34704 9.90587 3.34704 10.3217C3.34704 11.3316 7.08956 10.9158 7.08956 13.589C7.08956 15.0741 5.66384 15.9652 4.0599 15.9652C2.99061 15.9652 1.86191 15.6088 0.970832 14.9553L1.92131 13.4108ZM14.6934 11.8662C14.6934 9.72765 13.2083 7.9455 11.0697 7.9455C8.81231 7.9455 7.32718 9.84646 7.32718 11.9256C7.32718 14.3613 9.04993 15.9058 11.3073 15.9058C12.4954 15.9058 13.6835 15.4305 14.4558 14.5395L13.2677 13.3514C12.9113 13.7672 12.1984 14.2424 11.3667 14.2424C10.2974 14.2424 9.40636 13.4702 9.28755 12.4009H14.5746C14.6934 12.2821 14.6934 12.1039 14.6934 11.8662ZM9.46577 10.9752C9.58458 10.2623 10.2974 9.60884 11.1291 9.60884C11.9608 9.60884 12.5548 10.2623 12.6736 10.9752H9.46577ZM25.1487 12.8167L27.2279 8.12371H29.3665L25.8616 15.787H24.4359L20.9904 8.12371H23.0695L25.1487 12.8167ZM31.0892 4.5C31.8615 4.5 32.4556 5.09405 32.4556 5.80691C32.4556 6.57918 31.8615 7.11383 31.0892 7.11383C30.317 7.11383 29.7823 6.51977 29.7823 5.80691C29.7823 5.03465 30.317 4.5 31.0892 4.5ZM30.0793 8.12371H32.1585V15.787H30.0793V8.12371ZM40.5346 14.183C39.6436 15.3711 38.5149 15.9058 37.0892 15.9058C34.7129 15.9058 32.9902 14.1236 32.9902 11.9256C32.9902 9.66825 34.7724 7.9455 37.0892 7.9455C38.4555 7.9455 39.5842 8.59895 40.297 9.49003L38.9901 10.7375C38.5743 10.2029 37.9802 9.84646 37.2674 9.84646C36.0793 9.84646 35.1882 10.7969 35.1882 11.9256C35.1882 13.1137 36.0199 14.0048 37.2674 14.0048C38.099 14.0048 38.7525 13.5296 39.1089 12.9949L40.5346 14.183ZM47.9603 14.5395C47.188 15.4305 45.9999 15.9058 44.8118 15.9058C42.5544 15.9058 40.8317 14.3613 40.8317 11.9256C40.8317 9.78706 42.2574 7.9455 44.5742 7.9455C46.6534 7.9455 48.1979 9.72765 48.1979 11.8662C48.1979 12.1039 48.1979 12.2821 48.1385 12.4603H42.792C42.9108 13.5296 43.8019 14.3018 44.8712 14.3018C45.7029 14.3018 46.4158 13.8266 46.7722 13.4108L47.9603 14.5395ZM46.0593 10.9752C45.9999 10.3217 45.4059 9.60884 44.5148 9.60884C43.6831 9.60884 42.9703 10.2623 42.8514 10.9752H46.0593ZM48.9702 15.787V8.12371H50.9305V8.77717C51.5246 8.30193 52.2375 8.0049 53.0691 8.0049C54.1384 8.0049 55.0889 8.48014 55.7424 9.25241C56.2176 9.84646 56.574 10.6187 56.574 11.9256V15.8464H54.4949V11.7474C54.4949 10.9752 54.3166 10.5593 54.0196 10.3217C53.7226 10.0247 53.3662 9.84646 52.8315 9.84646C51.9998 9.84646 51.287 10.3811 50.9305 10.7969V15.787H48.9702Z" fill="#293E40"/>
<path fill-rule="evenodd" clip-rule="evenodd" d="M61.8017 7.9455C59.3067 7.9455 57.3463 9.90587 57.3463 12.4009C57.3463 13.7078 57.881 14.8959 58.7126 15.7276C59.0096 16.0246 59.5443 16.0246 59.9007 15.787C60.376 15.3711 61.0888 15.1335 61.8017 15.1335C62.574 15.1335 63.168 15.3711 63.7027 15.787C64.0591 16.084 64.5343 16.0246 64.8908 15.6682C65.7224 14.8365 66.2571 13.7078 66.2571 12.4009C66.1977 9.96527 64.2373 7.9455 61.8017 7.9455ZM61.7423 14.7177C60.376 14.7177 59.4849 13.7078 59.4849 12.4603C59.4849 11.2128 60.376 10.2029 61.7423 10.2029C63.1086 10.2029 63.9997 11.2128 63.9997 12.4603C63.9997 13.7078 63.1086 14.7177 61.7423 14.7177Z" fill="#81B5A1"/>
<path fill-rule="evenodd" clip-rule="evenodd" d="M70.2966 15.787H68.7521L65.7224 8.12371H67.7422L69.4056 12.5197L71.0689 8.12371H72.7322L74.3362 12.5197L75.9995 8.12371H78.0787L75.049 15.787H73.5045L71.8412 11.4504L70.2966 15.787Z" fill="#293E40"/>
<path d="M78.0787 14.8959H77.9005V15.1929H77.7817V14.3018H78.1381C78.3163 14.3018 78.3757 14.4207 78.3757 14.5989C78.3757 14.7177 78.3163 14.7771 78.2569 14.8365L78.4945 15.1335H78.3163L78.0787 14.8959ZM77.9005 14.6583H78.1381C78.2569 14.6583 78.2569 14.5989 78.2569 14.5395C78.2569 14.4207 78.1975 14.4207 78.1381 14.4207H77.9005V14.6583Z" fill="#293E40"/>
<path d="M78.0787 13.9454C78.5539 13.9454 78.9104 14.3018 78.9104 14.7771C78.9104 15.2523 78.5539 15.6088 78.0787 15.6088C77.6034 15.6088 77.247 15.2523 77.247 14.7771C77.247 14.3018 77.6628 13.9454 78.0787 13.9454ZM78.0787 13.8266C77.544 13.8266 77.1282 14.3018 77.1282 14.7771C77.1282 15.3117 77.6034 15.7276 78.0787 15.7276C78.6133 15.7276 79.0292 15.2523 79.0292 14.7771C79.0292 14.3018 78.5539 13.8266 78.0787 13.8266Z" fill="#293E40"/>
</g>
<defs>
<clipPath id="clip0_14_707">
<rect width="80" height="11.584" fill="white" transform="translate(0 4.5)"/>
</clipPath>
</defs>
</svg>
