<svg width="32" height="32" viewBox="0 0 32 32" fill="none" xmlns="http://www.w3.org/2000/svg">
<g clip-path="url(#clip0_707_2778)">
<path d="M6.81348 11.8202C6.81348 9.98766 5.31898 8.49091 3.48623 8.49091C1.65373 8.49091 0.157227 9.98766 0.157227 11.8202C0.157227 13.6527 1.65398 15.1494 3.48648 15.1494H6.81373L6.81348 11.8202ZM8.49073 11.8202C8.49073 13.6527 9.98748 15.1494 11.82 15.1494C13.6525 15.1494 15.1492 13.6529 15.1492 11.8202V3.48641C15.1492 1.65391 13.6527 0.157164 11.82 0.157164C9.98748 0.157164 8.49073 1.65391 8.49073 3.48641V11.8202Z" fill="#DE1C59"/>
<path d="M11.82 25.1863C9.98748 25.1863 8.49073 26.6808 8.49073 28.5135C8.49073 30.346 9.98748 31.8425 11.82 31.8425C13.6525 31.8425 15.1492 30.3458 15.1492 28.5133V25.186L11.82 25.1863ZM11.82 23.509C13.6525 23.509 15.1492 22.0123 15.1492 20.1798C15.1492 18.3473 13.6527 16.8505 11.82 16.8505H3.48623C1.65373 16.8505 0.157227 18.347 0.157227 20.1798C0.157227 22.0123 1.65398 23.509 3.48648 23.509H11.82Z" fill="#35C5F0"/>
<path d="M25.1863 20.1798C25.1863 22.0123 26.6808 23.509 28.5136 23.509C30.3461 23.509 31.8428 22.0123 31.8428 20.1798C31.8428 18.3473 30.3461 16.8505 28.5136 16.8505H25.1863V20.1798ZM23.5091 20.1798C23.5091 18.3473 22.0123 16.8505 20.1798 16.8505C18.3473 16.8505 16.8506 18.347 16.8506 20.1798V28.5135C16.8506 30.346 18.3471 31.8425 20.1798 31.8425C22.0123 31.8425 23.5091 30.3458 23.5091 28.5133V20.1798Z" fill="#2EB57D"/>
<path d="M20.1798 6.81366C22.0123 6.81366 23.5091 5.31916 23.5091 3.48641C23.5091 1.65391 22.0123 0.157164 20.1798 0.157164C18.3473 0.157164 16.8506 1.65391 16.8506 3.48641V6.81366H20.1798ZM20.1798 8.49091C18.3473 8.49091 16.8506 9.98766 16.8506 11.8202C16.8506 13.6527 18.3471 15.1494 20.1798 15.1494H28.5136C30.3461 15.1494 31.8428 13.6529 31.8428 11.8202C31.8428 9.98766 30.3461 8.49091 28.5136 8.49091H20.1798Z" fill="#EBB02E"/>
</g>
<defs>
<clipPath id="clip0_707_2778">
<rect width="32" height="32" fill="white" transform="matrix(1 0 0 -1 0 32)"/>
</clipPath>
</defs>
</svg>
