<svg id="Layer_1" data-name="Layer 1" xmlns="http://www.w3.org/2000/svg" viewBox="0 0 24 24"><path d="M5.9,4.48l.11,0a1,1,0,0,1,1.26.62L8.42,8.47,12.7,7,11.55,3.61a1,1,0,0,1,.62-1.25l.14,0a1,1,0,0,1,1.25.61l1.16,3.41,3.56-1.2a1,1,0,0,1,1.25.61h0A1,1,0,0,1,18.92,7L15.35,8.2l1.54,4.54,3.56-1.21a1,1,0,0,1,1.26.62h0a1,1,0,0,1-.62,1.25l-3.57,1.21,1.24,3.66a1,1,0,0,1-.62,1.25l-.14.05A1,1,0,0,1,16.75,19l-1.24-3.66-4.29,1.45,1.24,3.66a1,1,0,0,1-.61,1.26l-.11,0a1,1,0,0,1-1.25-.61L9.25,17.42,5.75,18.6A1,1,0,0,1,4.5,18h0a1,1,0,0,1,.62-1.25l3.49-1.19L7.07,11,3.55,12.2a1,1,0,0,1-1.25-.61h0a1,1,0,0,1,.62-1.25L6.44,9.14,5.29,5.73A1,1,0,0,1,5.9,4.48Zm4.69,10.39,4.28-1.45L13.34,8.89,9.05,10.34Z"/></svg>