<svg width="35" height="32" viewBox="0 0 35 32" fill="none" xmlns="http://www.w3.org/2000/svg">
<g clip-path="url(#clip0_707_2786)">
<path d="M24.4128 11.9568H33.4533C34.3075 11.9568 34.9999 12.6349 34.9999 13.4714V21.5358C34.9999 24.6099 32.4551 27.1022 29.3161 27.1022H29.2891C26.1501 27.1026 23.6049 24.6108 23.6045 21.5366V12.7485C23.6045 12.6445 23.6254 12.5416 23.666 12.4455C23.7066 12.3495 23.7661 12.2622 23.8412 12.1887C23.9162 12.1152 24.0054 12.0568 24.1034 12.0171C24.2015 11.9773 24.3066 11.9568 24.4128 11.9568Z" fill="#5059C9"/>
<path d="M30.5232 10.3626C32.5461 10.3626 34.186 8.75665 34.186 6.77556C34.186 4.79447 32.5461 3.18848 30.5232 3.18848C28.5003 3.18848 26.8604 4.79447 26.8604 6.77556C26.8604 8.75665 28.5003 10.3626 30.5232 10.3626Z" fill="#5059C9"/>
<path d="M19.1277 10.3626C22.0497 10.3626 24.4184 8.04289 24.4184 5.18132C24.4184 2.31976 22.0497 0 19.1277 0C16.2057 0 13.8369 2.31976 13.8369 5.18132C13.8369 8.04289 16.2057 10.3626 19.1277 10.3626Z" fill="#7B83EB"/>
<path d="M26.1822 11.9568H11.2592C10.4152 11.9773 9.74763 12.6632 9.76718 13.4897V22.6876C9.64933 27.6475 13.6561 31.7634 18.7206 31.8849C23.7851 31.7634 27.7919 27.6475 27.6742 22.6876V13.4897C27.6937 12.6632 27.0261 11.9773 26.1822 11.9568Z" fill="#7B83EB"/>
<path opacity="0.1" d="M19.5346 11.9568V24.8462C19.5327 25.1353 19.4436 25.4174 19.2785 25.6571C19.1134 25.8968 18.8797 26.0834 18.6067 26.1934C18.429 26.2671 18.238 26.305 18.0451 26.305H10.4833C10.3775 26.0419 10.2799 25.7788 10.1984 25.5079C9.91345 24.5932 9.7681 23.6423 9.76702 22.686V13.4873C9.74747 12.6621 10.414 11.9773 11.2566 11.9569H19.5345L19.5346 11.9568Z" fill="#232329"/>
<path opacity="0.2" d="M18.7213 11.9568V25.6434C18.7213 25.8323 18.6826 26.0194 18.6074 26.1934C18.495 26.4608 18.3045 26.6896 18.0597 26.8513C17.815 27.013 17.527 27.1002 17.2317 27.1022H10.8668C10.7284 26.8391 10.5982 26.576 10.4843 26.305C10.3749 26.0444 10.2798 25.7784 10.1993 25.5079C9.91443 24.5932 9.76908 23.6423 9.768 22.686V13.4873C9.74845 12.6621 10.415 11.9773 11.2575 11.9569H18.7214L18.7213 11.9568Z" fill="#232329"/>
<path opacity="0.2" d="M18.7205 11.9568V24.0492C18.7143 24.8523 18.0511 25.5019 17.2309 25.5079H10.1984C9.91345 24.5932 9.7681 23.6423 9.76702 22.686V13.4873C9.74747 12.6621 10.414 11.9773 11.2566 11.9569L18.7205 11.9568Z" fill="#232329"/>
<path opacity="0.2" d="M17.9066 11.9568V24.0492C17.9003 24.8523 17.2371 25.5019 16.417 25.5079H10.1984C9.91345 24.5932 9.7681 23.6423 9.76702 22.686V13.4873C9.74747 12.6621 10.414 11.9773 11.2566 11.9569L17.9066 11.9568Z" fill="#232329"/>
<path opacity="0.1" d="M19.5346 7.8357V10.3466C19.3962 10.3546 19.2659 10.3626 19.1276 10.3626C18.9892 10.3626 18.8589 10.3546 18.7206 10.3466C18.4458 10.3287 18.1734 10.2861 17.9067 10.2191C17.0941 10.0306 16.3386 9.65651 15.702 9.12728C15.0654 8.59805 14.5657 7.92876 14.2438 7.17414C14.1315 6.91706 14.0443 6.65014 13.9834 6.37695H18.045C18.8663 6.38003 19.5314 7.03128 19.5346 7.8357Z" fill="#232329"/>
<path opacity="0.2" d="M18.7207 8.63268V10.3465C18.446 10.3287 18.1735 10.286 17.9068 10.219C17.0943 10.0306 16.3388 9.65641 15.7022 9.12718C15.0656 8.59795 14.566 7.92867 14.2441 7.17407H17.2312C18.0526 7.17702 18.7176 7.8284 18.7207 8.63268Z" fill="#232329"/>
<path opacity="0.2" d="M18.7207 8.63268V10.3465C18.446 10.3287 18.1735 10.286 17.9068 10.219C17.0943 10.0306 16.3388 9.65641 15.7022 9.12718C15.0656 8.59795 14.566 7.92867 14.2441 7.17407H17.2312C18.0526 7.17702 18.7176 7.8284 18.7207 8.63268Z" fill="#232329"/>
<path opacity="0.2" d="M17.907 8.63282V10.2192C17.0944 10.0307 16.3389 9.65654 15.7022 9.12728C15.0656 8.59803 14.566 7.92871 14.2441 7.17407H16.4174C17.2388 7.17715 17.9038 7.82853 17.907 8.63282Z" fill="#232329"/>
<path d="M1.49201 7.17396H16.4149C17.239 7.17396 17.907 7.82815 17.907 8.63512V23.2495C17.907 24.0564 17.239 24.7106 16.415 24.7106H1.49201C0.668008 24.7106 0 24.0564 0 23.2495V8.63525C0 7.82802 0.668008 7.17396 1.49201 7.17396Z" fill="url(#paint0_linear_707_2786)"/>
<path d="M12.8803 12.7363H9.89713V20.6916H7.9966V12.7363H5.02734V11.1931H12.8803V12.7363Z" fill="#F2F4FC"/>
</g>
<defs>
<linearGradient id="paint0_linear_707_2786" x1="311.081" y1="-106.991" x2="1443.39" y2="1895.51" gradientUnits="userSpaceOnUse">
<stop stop-color="#5A62C3"/>
<stop offset="0.5" stop-color="#4D55BD"/>
<stop offset="1" stop-color="#3940AB"/>
</linearGradient>
<clipPath id="clip0_707_2786">
<rect width="35" height="32" fill="white"/>
</clipPath>
</defs>
</svg>
