<svg width="25" height="24" viewBox="0 0 25 24" fill="none" xmlns="http://www.w3.org/2000/svg">
<path d="M4.5 15.5V6C4.5 5.11667 4.72917 4.4125 5.1875 3.8875C5.64583 3.3625 6.25 2.9625 7 2.6875C7.75 2.4125 8.60417 2.22917 9.5625 2.1375C10.5208 2.04583 11.5 2 12.5 2C13.6 2 14.6375 2.04583 15.6125 2.1375C16.5875 2.22917 17.4375 2.4125 18.1625 2.6875C18.8875 2.9625 19.4583 3.3625 19.875 3.8875C20.2917 4.4125 20.5 5.11667 20.5 6V15.5C20.5 16.4833 20.1625 17.3125 19.4875 17.9875C18.8125 18.6625 17.9833 19 17 19L18.5 20.5V21H16.5L14.5 19H10.5L8.5 21H6.5V20.5L8 19C7.01667 19 6.1875 18.6625 5.5125 17.9875C4.8375 17.3125 4.5 16.4833 4.5 15.5ZM12.5 4C10.7333 4 9.44167 4.10417 8.625 4.3125C7.80833 4.52083 7.25 4.75 6.95 5H18.15C17.9 4.71667 17.3625 4.47917 16.5375 4.2875C15.7125 4.09583 14.3667 4 12.5 4ZM6.5 10H11.5V7H6.5V10ZM17 12H6.5H18.5H17ZM13.5 10H18.5V7H13.5V10ZM9 16C9.43333 16 9.79167 15.8583 10.075 15.575C10.3583 15.2917 10.5 14.9333 10.5 14.5C10.5 14.0667 10.3583 13.7083 10.075 13.425C9.79167 13.1417 9.43333 13 9 13C8.56667 13 8.20833 13.1417 7.925 13.425C7.64167 13.7083 7.5 14.0667 7.5 14.5C7.5 14.9333 7.64167 15.2917 7.925 15.575C8.20833 15.8583 8.56667 16 9 16ZM16 16C16.4333 16 16.7917 15.8583 17.075 15.575C17.3583 15.2917 17.5 14.9333 17.5 14.5C17.5 14.0667 17.3583 13.7083 17.075 13.425C16.7917 13.1417 16.4333 13 16 13C15.5667 13 15.2083 13.1417 14.925 13.425C14.6417 13.7083 14.5 14.0667 14.5 14.5C14.5 14.9333 14.6417 15.2917 14.925 15.575C15.2083 15.8583 15.5667 16 16 16ZM8 17H17C17.4333 17 17.7917 16.8583 18.075 16.575C18.3583 16.2917 18.5 15.9333 18.5 15.5V12H6.5V15.5C6.5 15.9333 6.64167 16.2917 6.925 16.575C7.20833 16.8583 7.56667 17 8 17ZM12.5 5H18.15H6.95H12.5Z" fill="#0063AD"/>
</svg>
